<mxfile host="app.diagrams.net" agent="Mozilla/5.0 (Windows NT 10.0; Win64; x64) AppleWebKit/537.36 (KHTML, like Gecko) Chrome/131.0.0.0 Safari/537.36" version="26.0.4">
  <diagram name="Pagina-1" id="9haloyW95PjSCCVmwwok">
    <mxGraphModel grid="1" page="1" gridSize="10" guides="1" tooltips="1" connect="1" arrows="1" fold="1" pageScale="1" pageWidth="827" pageHeight="1169" math="0" shadow="0">
      <root>
        <mxCell id="0" />
        <mxCell id="1" parent="0" />
        <mxCell id="nfyMrxGbnOqmfFPUxilh-1" value="&lt;font style=&quot;vertical-align: inherit;&quot;&gt;&lt;font style=&quot;vertical-align: inherit;&quot;&gt;&lt;font style=&quot;vertical-align: inherit;&quot;&gt;&lt;font style=&quot;vertical-align: inherit;&quot;&gt;Cliente&lt;/font&gt;&lt;/font&gt;&lt;/font&gt;&lt;/font&gt;" style="swimlane;fontStyle=0;childLayout=stackLayout;horizontal=1;startSize=26;fillColor=none;horizontalStack=0;resizeParent=1;resizeParentMax=0;resizeLast=0;collapsible=1;marginBottom=0;whiteSpace=wrap;html=1;" vertex="1" parent="1">
          <mxGeometry x="280" y="104" width="140" height="80" as="geometry" />
        </mxCell>
        <mxCell id="nfyMrxGbnOqmfFPUxilh-2" value="IdCliente" style="text;strokeColor=none;fillColor=none;align=left;verticalAlign=top;spacingLeft=4;spacingRight=4;overflow=hidden;rotatable=0;points=[[0,0.5],[1,0.5]];portConstraint=eastwest;whiteSpace=wrap;html=1;" vertex="1" parent="nfyMrxGbnOqmfFPUxilh-1">
          <mxGeometry y="26" width="140" height="26" as="geometry" />
        </mxCell>
        <mxCell id="majqjS3A9KxO7dfuxN8L-1" value="&lt;i&gt;Dati Registrazione&lt;/i&gt;" style="text;strokeColor=none;fillColor=none;align=left;verticalAlign=top;spacingLeft=4;spacingRight=4;overflow=hidden;rotatable=0;points=[[0,0.5],[1,0.5]];portConstraint=eastwest;whiteSpace=wrap;html=1;" vertex="1" parent="nfyMrxGbnOqmfFPUxilh-1">
          <mxGeometry y="52" width="140" height="28" as="geometry" />
        </mxCell>
        <mxCell id="majqjS3A9KxO7dfuxN8L-13" style="edgeStyle=orthogonalEdgeStyle;rounded=0;orthogonalLoop=1;jettySize=auto;html=1;entryX=0.5;entryY=0;entryDx=0;entryDy=0;exitX=0.5;exitY=0;exitDx=0;exitDy=0;endArrow=none;endFill=0;" edge="1" parent="1" source="nfyMrxGbnOqmfFPUxilh-5" target="majqjS3A9KxO7dfuxN8L-9">
          <mxGeometry relative="1" as="geometry" />
        </mxCell>
        <mxCell id="nfyMrxGbnOqmfFPUxilh-5" value="&lt;font style=&quot;vertical-align: inherit;&quot;&gt;&lt;font style=&quot;vertical-align: inherit;&quot;&gt;&lt;font style=&quot;vertical-align: inherit;&quot;&gt;&lt;font style=&quot;vertical-align: inherit;&quot;&gt;Negozio&lt;/font&gt;&lt;/font&gt;&lt;/font&gt;&lt;/font&gt;" style="swimlane;fontStyle=0;childLayout=stackLayout;horizontal=1;startSize=26;fillColor=none;horizontalStack=0;resizeParent=1;resizeParentMax=0;resizeLast=0;collapsible=1;marginBottom=0;whiteSpace=wrap;html=1;" vertex="1" parent="1">
          <mxGeometry x="481" y="-2" width="140" height="78" as="geometry" />
        </mxCell>
        <mxCell id="nfyMrxGbnOqmfFPUxilh-6" value="IdNegozio" style="text;strokeColor=none;fillColor=none;align=left;verticalAlign=top;spacingLeft=4;spacingRight=4;overflow=hidden;rotatable=0;points=[[0,0.5],[1,0.5]];portConstraint=eastwest;whiteSpace=wrap;html=1;" vertex="1" parent="nfyMrxGbnOqmfFPUxilh-5">
          <mxGeometry y="26" width="140" height="26" as="geometry" />
        </mxCell>
        <mxCell id="nfyMrxGbnOqmfFPUxilh-33" value="StatoSportello" style="text;strokeColor=none;fillColor=none;align=left;verticalAlign=top;spacingLeft=4;spacingRight=4;overflow=hidden;rotatable=0;points=[[0,0.5],[1,0.5]];portConstraint=eastwest;whiteSpace=wrap;html=1;" vertex="1" parent="nfyMrxGbnOqmfFPUxilh-5">
          <mxGeometry y="52" width="140" height="26" as="geometry" />
        </mxCell>
        <mxCell id="nfyMrxGbnOqmfFPUxilh-9" value="&lt;font style=&quot;vertical-align: inherit;&quot;&gt;&lt;font style=&quot;vertical-align: inherit;&quot;&gt;Sede Lavorazione&lt;/font&gt;&lt;/font&gt;" style="swimlane;fontStyle=0;childLayout=stackLayout;horizontal=1;startSize=26;fillColor=none;horizontalStack=0;resizeParent=1;resizeParentMax=0;resizeLast=0;collapsible=1;marginBottom=0;whiteSpace=wrap;html=1;" vertex="1" parent="1">
          <mxGeometry x="491" y="414" width="140" height="104" as="geometry">
            <mxRectangle x="240" y="414" width="140" height="30" as="alternateBounds" />
          </mxGeometry>
        </mxCell>
        <mxCell id="nfyMrxGbnOqmfFPUxilh-10" value="IdSede" style="text;strokeColor=none;fillColor=none;align=left;verticalAlign=top;spacingLeft=4;spacingRight=4;overflow=hidden;rotatable=0;points=[[0,0.5],[1,0.5]];portConstraint=eastwest;whiteSpace=wrap;html=1;" vertex="1" parent="nfyMrxGbnOqmfFPUxilh-9">
          <mxGeometry y="26" width="140" height="26" as="geometry" />
        </mxCell>
        <mxCell id="nfyMrxGbnOqmfFPUxilh-11" value="field: type" style="text;strokeColor=none;fillColor=none;align=left;verticalAlign=top;spacingLeft=4;spacingRight=4;overflow=hidden;rotatable=0;points=[[0,0.5],[1,0.5]];portConstraint=eastwest;whiteSpace=wrap;html=1;" vertex="1" parent="nfyMrxGbnOqmfFPUxilh-9">
          <mxGeometry y="52" width="140" height="26" as="geometry" />
        </mxCell>
        <mxCell id="nfyMrxGbnOqmfFPUxilh-12" value="field: type" style="text;strokeColor=none;fillColor=none;align=left;verticalAlign=top;spacingLeft=4;spacingRight=4;overflow=hidden;rotatable=0;points=[[0,0.5],[1,0.5]];portConstraint=eastwest;whiteSpace=wrap;html=1;" vertex="1" parent="nfyMrxGbnOqmfFPUxilh-9">
          <mxGeometry y="78" width="140" height="26" as="geometry" />
        </mxCell>
        <mxCell id="nfyMrxGbnOqmfFPUxilh-13" value="Totem" style="swimlane;fontStyle=0;childLayout=stackLayout;horizontal=1;startSize=26;fillColor=none;horizontalStack=0;resizeParent=1;resizeParentMax=0;resizeLast=0;collapsible=1;marginBottom=0;whiteSpace=wrap;html=1;" vertex="1" parent="1">
          <mxGeometry x="481" y="118" width="140" height="52" as="geometry" />
        </mxCell>
        <mxCell id="nfyMrxGbnOqmfFPUxilh-14" value="IdTotem" style="text;strokeColor=none;fillColor=none;align=left;verticalAlign=top;spacingLeft=4;spacingRight=4;overflow=hidden;rotatable=0;points=[[0,0.5],[1,0.5]];portConstraint=eastwest;whiteSpace=wrap;html=1;" vertex="1" parent="nfyMrxGbnOqmfFPUxilh-13">
          <mxGeometry y="26" width="140" height="26" as="geometry" />
        </mxCell>
        <mxCell id="nfyMrxGbnOqmfFPUxilh-79" style="edgeStyle=orthogonalEdgeStyle;rounded=0;orthogonalLoop=1;jettySize=auto;html=1;exitX=1;exitY=0.5;exitDx=0;exitDy=0;entryX=1;entryY=0.5;entryDx=0;entryDy=0;endArrow=none;endFill=0;" edge="1" parent="1" source="nfyMrxGbnOqmfFPUxilh-29" target="nfyMrxGbnOqmfFPUxilh-48">
          <mxGeometry relative="1" as="geometry">
            <Array as="points">
              <mxPoint x="1110" y="149" />
              <mxPoint x="1110" y="466" />
            </Array>
          </mxGeometry>
        </mxCell>
        <mxCell id="nfyMrxGbnOqmfFPUxilh-29" value="Capo" style="swimlane;fontStyle=0;childLayout=stackLayout;horizontal=1;startSize=26;fillColor=none;horizontalStack=0;resizeParent=1;resizeParentMax=0;resizeLast=0;collapsible=1;marginBottom=0;whiteSpace=wrap;html=1;" vertex="1" parent="1">
          <mxGeometry x="711" y="110" width="140" height="78" as="geometry" />
        </mxCell>
        <mxCell id="nfyMrxGbnOqmfFPUxilh-30" value="IdCapo" style="text;strokeColor=none;fillColor=none;align=left;verticalAlign=top;spacingLeft=4;spacingRight=4;overflow=hidden;rotatable=0;points=[[0,0.5],[1,0.5]];portConstraint=eastwest;whiteSpace=wrap;html=1;" vertex="1" parent="nfyMrxGbnOqmfFPUxilh-29">
          <mxGeometry y="26" width="140" height="24" as="geometry" />
        </mxCell>
        <mxCell id="nfyMrxGbnOqmfFPUxilh-81" value="StatoLavorazione" style="text;strokeColor=none;fillColor=none;align=left;verticalAlign=top;spacingLeft=4;spacingRight=4;overflow=hidden;rotatable=0;points=[[0,0.5],[1,0.5]];portConstraint=eastwest;whiteSpace=wrap;html=1;" vertex="1" parent="nfyMrxGbnOqmfFPUxilh-29">
          <mxGeometry y="50" width="140" height="28" as="geometry" />
        </mxCell>
        <mxCell id="nfyMrxGbnOqmfFPUxilh-34" value="Transazione" style="swimlane;fontStyle=0;childLayout=stackLayout;horizontal=1;startSize=26;fillColor=none;horizontalStack=0;resizeParent=1;resizeParentMax=0;resizeLast=0;collapsible=1;marginBottom=0;whiteSpace=wrap;html=1;" vertex="1" parent="1">
          <mxGeometry x="481" y="222" width="140" height="80" as="geometry" />
        </mxCell>
        <mxCell id="nfyMrxGbnOqmfFPUxilh-63" value="IdTransazione" style="text;strokeColor=none;fillColor=none;align=left;verticalAlign=top;spacingLeft=4;spacingRight=4;overflow=hidden;rotatable=0;points=[[0,0.5],[1,0.5]];portConstraint=eastwest;whiteSpace=wrap;html=1;" vertex="1" parent="nfyMrxGbnOqmfFPUxilh-34">
          <mxGeometry y="26" width="140" height="26" as="geometry" />
        </mxCell>
        <mxCell id="nfyMrxGbnOqmfFPUxilh-35" value="Pagamento" style="text;strokeColor=none;fillColor=none;align=left;verticalAlign=top;spacingLeft=4;spacingRight=4;overflow=hidden;rotatable=0;points=[[0,0.5],[1,0.5]];portConstraint=eastwest;whiteSpace=wrap;html=1;" vertex="1" parent="nfyMrxGbnOqmfFPUxilh-34">
          <mxGeometry y="52" width="140" height="28" as="geometry" />
        </mxCell>
        <mxCell id="nfyMrxGbnOqmfFPUxilh-80" style="edgeStyle=orthogonalEdgeStyle;rounded=0;orthogonalLoop=1;jettySize=auto;html=1;exitX=0.5;exitY=0;exitDx=0;exitDy=0;entryX=0.495;entryY=0.973;entryDx=0;entryDy=0;entryPerimeter=0;endArrow=none;endFill=0;" edge="1" parent="1" source="nfyMrxGbnOqmfFPUxilh-39" target="majqjS3A9KxO7dfuxN8L-7">
          <mxGeometry relative="1" as="geometry">
            <mxPoint x="781" y="540" as="targetPoint" />
          </mxGeometry>
        </mxCell>
        <mxCell id="nfyMrxGbnOqmfFPUxilh-39" value="Operatore" style="swimlane;fontStyle=0;childLayout=stackLayout;horizontal=1;startSize=26;fillColor=none;horizontalStack=0;resizeParent=1;resizeParentMax=0;resizeLast=0;collapsible=1;marginBottom=0;whiteSpace=wrap;html=1;" vertex="1" parent="1">
          <mxGeometry x="711" y="635.5" width="140" height="78" as="geometry" />
        </mxCell>
        <mxCell id="nfyMrxGbnOqmfFPUxilh-40" value="IdLavoratore" style="text;strokeColor=none;fillColor=none;align=left;verticalAlign=top;spacingLeft=4;spacingRight=4;overflow=hidden;rotatable=0;points=[[0,0.5],[1,0.5]];portConstraint=eastwest;whiteSpace=wrap;html=1;" vertex="1" parent="nfyMrxGbnOqmfFPUxilh-39">
          <mxGeometry y="26" width="140" height="26" as="geometry" />
        </mxCell>
        <mxCell id="nfyMrxGbnOqmfFPUxilh-85" value="TipoOperatore" style="text;strokeColor=none;fillColor=none;align=left;verticalAlign=top;spacingLeft=4;spacingRight=4;overflow=hidden;rotatable=0;points=[[0,0.5],[1,0.5]];portConstraint=eastwest;whiteSpace=wrap;html=1;" vertex="1" parent="nfyMrxGbnOqmfFPUxilh-39">
          <mxGeometry y="52" width="140" height="26" as="geometry" />
        </mxCell>
        <mxCell id="nfyMrxGbnOqmfFPUxilh-47" value="Macchinario/Stazione di lavoro" style="swimlane;fontStyle=0;childLayout=stackLayout;horizontal=1;startSize=26;fillColor=none;horizontalStack=0;resizeParent=1;resizeParentMax=0;resizeLast=0;collapsible=1;marginBottom=0;whiteSpace=wrap;html=1;" vertex="1" parent="1">
          <mxGeometry x="711" y="427" width="140" height="130" as="geometry" />
        </mxCell>
        <mxCell id="nfyMrxGbnOqmfFPUxilh-48" value="IdStazione" style="text;strokeColor=none;fillColor=none;align=left;verticalAlign=top;spacingLeft=4;spacingRight=4;overflow=hidden;rotatable=0;points=[[0,0.5],[1,0.5]];portConstraint=eastwest;whiteSpace=wrap;html=1;" vertex="1" parent="nfyMrxGbnOqmfFPUxilh-47">
          <mxGeometry y="26" width="140" height="26" as="geometry" />
        </mxCell>
        <mxCell id="nfyMrxGbnOqmfFPUxilh-49" value="TipoMacchinario" style="text;strokeColor=none;fillColor=none;align=left;verticalAlign=top;spacingLeft=4;spacingRight=4;overflow=hidden;rotatable=0;points=[[0,0.5],[1,0.5]];portConstraint=eastwest;whiteSpace=wrap;html=1;" vertex="1" parent="nfyMrxGbnOqmfFPUxilh-47">
          <mxGeometry y="52" width="140" height="26" as="geometry" />
        </mxCell>
        <mxCell id="nfyMrxGbnOqmfFPUxilh-84" value="StatoMacchinario" style="text;strokeColor=none;fillColor=none;align=left;verticalAlign=top;spacingLeft=4;spacingRight=4;overflow=hidden;rotatable=0;points=[[0,0.5],[1,0.5]];portConstraint=eastwest;whiteSpace=wrap;html=1;" vertex="1" parent="nfyMrxGbnOqmfFPUxilh-47">
          <mxGeometry y="78" width="140" height="26" as="geometry" />
        </mxCell>
        <mxCell id="majqjS3A9KxO7dfuxN8L-7" value="LivelloProdottoLavaggio" style="text;strokeColor=none;fillColor=none;align=left;verticalAlign=top;spacingLeft=4;spacingRight=4;overflow=hidden;rotatable=0;points=[[0,0.5],[1,0.5]];portConstraint=eastwest;whiteSpace=wrap;html=1;" vertex="1" parent="nfyMrxGbnOqmfFPUxilh-47">
          <mxGeometry y="104" width="140" height="26" as="geometry" />
        </mxCell>
        <mxCell id="nfyMrxGbnOqmfFPUxilh-52" value="" style="endArrow=none;html=1;rounded=0;exitX=0.5;exitY=0;exitDx=0;exitDy=0;" edge="1" parent="1" source="nfyMrxGbnOqmfFPUxilh-13">
          <mxGeometry width="50" height="50" relative="1" as="geometry">
            <mxPoint x="341" y="308" as="sourcePoint" />
            <mxPoint x="551" y="79" as="targetPoint" />
          </mxGeometry>
        </mxCell>
        <mxCell id="nfyMrxGbnOqmfFPUxilh-54" value="" style="endArrow=none;html=1;rounded=0;entryX=0;entryY=0.5;entryDx=0;entryDy=0;exitX=1;exitY=0.5;exitDx=0;exitDy=0;" edge="1" parent="1" source="nfyMrxGbnOqmfFPUxilh-1" target="nfyMrxGbnOqmfFPUxilh-13">
          <mxGeometry width="50" height="50" relative="1" as="geometry">
            <mxPoint x="361" y="268" as="sourcePoint" />
            <mxPoint x="411" y="218" as="targetPoint" />
          </mxGeometry>
        </mxCell>
        <mxCell id="nfyMrxGbnOqmfFPUxilh-56" value="" style="endArrow=none;html=1;rounded=0;exitX=0.498;exitY=1.047;exitDx=0;exitDy=0;exitPerimeter=0;entryX=0.5;entryY=0;entryDx=0;entryDy=0;" edge="1" parent="1" source="nfyMrxGbnOqmfFPUxilh-14" target="nfyMrxGbnOqmfFPUxilh-34">
          <mxGeometry width="50" height="50" relative="1" as="geometry">
            <mxPoint x="631" y="148" as="sourcePoint" />
            <mxPoint x="681" y="98" as="targetPoint" />
          </mxGeometry>
        </mxCell>
        <mxCell id="nfyMrxGbnOqmfFPUxilh-60" value="" style="endArrow=none;html=1;rounded=0;exitX=1;exitY=0.5;exitDx=0;exitDy=0;entryX=0.015;entryY=-0.022;entryDx=0;entryDy=0;entryPerimeter=0;" edge="1" parent="1" source="nfyMrxGbnOqmfFPUxilh-13" target="nfyMrxGbnOqmfFPUxilh-30">
          <mxGeometry width="50" height="50" relative="1" as="geometry">
            <mxPoint x="751" y="370" as="sourcePoint" />
            <mxPoint x="801" y="320" as="targetPoint" />
          </mxGeometry>
        </mxCell>
        <mxCell id="nfyMrxGbnOqmfFPUxilh-64" value="&lt;font style=&quot;vertical-align: inherit;&quot;&gt;&lt;font style=&quot;vertical-align: inherit;&quot;&gt;Pallet&lt;/font&gt;&lt;/font&gt;" style="swimlane;fontStyle=0;childLayout=stackLayout;horizontal=1;startSize=26;fillColor=none;horizontalStack=0;resizeParent=1;resizeParentMax=0;resizeLast=0;collapsible=1;marginBottom=0;whiteSpace=wrap;html=1;" vertex="1" parent="1">
          <mxGeometry x="711" y="232" width="140" height="80" as="geometry" />
        </mxCell>
        <mxCell id="nfyMrxGbnOqmfFPUxilh-69" value="IdPallet" style="text;strokeColor=none;fillColor=none;align=left;verticalAlign=top;spacingLeft=4;spacingRight=4;overflow=hidden;rotatable=0;points=[[0,0.5],[1,0.5]];portConstraint=eastwest;whiteSpace=wrap;html=1;" vertex="1" parent="nfyMrxGbnOqmfFPUxilh-64">
          <mxGeometry y="26" width="140" height="26" as="geometry" />
        </mxCell>
        <mxCell id="nfyMrxGbnOqmfFPUxilh-65" value="TipoCapiContenuti" style="text;strokeColor=none;fillColor=none;align=left;verticalAlign=top;spacingLeft=4;spacingRight=4;overflow=hidden;rotatable=0;points=[[0,0.5],[1,0.5]];portConstraint=eastwest;whiteSpace=wrap;html=1;" vertex="1" parent="nfyMrxGbnOqmfFPUxilh-64">
          <mxGeometry y="52" width="140" height="28" as="geometry" />
        </mxCell>
        <mxCell id="nfyMrxGbnOqmfFPUxilh-68" value="" style="endArrow=none;html=1;rounded=0;exitX=0.5;exitY=0;exitDx=0;exitDy=0;" edge="1" parent="1" source="nfyMrxGbnOqmfFPUxilh-64">
          <mxGeometry width="50" height="50" relative="1" as="geometry">
            <mxPoint x="741" y="360" as="sourcePoint" />
            <mxPoint x="781" y="194" as="targetPoint" />
          </mxGeometry>
        </mxCell>
        <mxCell id="nfyMrxGbnOqmfFPUxilh-72" value="" style="endArrow=none;html=1;rounded=0;entryX=0.479;entryY=1.058;entryDx=0;entryDy=0;entryPerimeter=0;" edge="1" parent="1" target="nfyMrxGbnOqmfFPUxilh-65">
          <mxGeometry width="50" height="50" relative="1" as="geometry">
            <mxPoint x="561" y="360" as="sourcePoint" />
            <mxPoint x="701" y="350" as="targetPoint" />
            <Array as="points">
              <mxPoint x="778" y="360" />
            </Array>
          </mxGeometry>
        </mxCell>
        <mxCell id="nfyMrxGbnOqmfFPUxilh-73" value="" style="endArrow=none;html=1;rounded=0;" edge="1" parent="1" source="nfyMrxGbnOqmfFPUxilh-9">
          <mxGeometry width="50" height="50" relative="1" as="geometry">
            <mxPoint x="751" y="460" as="sourcePoint" />
            <mxPoint x="561" y="360" as="targetPoint" />
          </mxGeometry>
        </mxCell>
        <mxCell id="nfyMrxGbnOqmfFPUxilh-74" value="" style="endArrow=none;html=1;rounded=0;entryX=0.006;entryY=0.717;entryDx=0;entryDy=0;entryPerimeter=0;exitX=1.015;exitY=0.229;exitDx=0;exitDy=0;exitPerimeter=0;" edge="1" parent="1" source="nfyMrxGbnOqmfFPUxilh-11" target="nfyMrxGbnOqmfFPUxilh-48">
          <mxGeometry width="50" height="50" relative="1" as="geometry">
            <mxPoint x="631" y="580" as="sourcePoint" />
            <mxPoint x="681" y="530" as="targetPoint" />
          </mxGeometry>
        </mxCell>
        <mxCell id="nfyMrxGbnOqmfFPUxilh-87" value="Corriere" style="swimlane;fontStyle=0;childLayout=stackLayout;horizontal=1;startSize=26;fillColor=none;horizontalStack=0;resizeParent=1;resizeParentMax=0;resizeLast=0;collapsible=1;marginBottom=0;whiteSpace=wrap;html=1;" vertex="1" parent="1">
          <mxGeometry x="940" y="340" width="140" height="52" as="geometry" />
        </mxCell>
        <mxCell id="nfyMrxGbnOqmfFPUxilh-88" value="IdCorriere" style="text;strokeColor=none;fillColor=none;align=left;verticalAlign=top;spacingLeft=4;spacingRight=4;overflow=hidden;rotatable=0;points=[[0,0.5],[1,0.5]];portConstraint=eastwest;whiteSpace=wrap;html=1;" vertex="1" parent="nfyMrxGbnOqmfFPUxilh-87">
          <mxGeometry y="26" width="140" height="26" as="geometry" />
        </mxCell>
        <mxCell id="nfyMrxGbnOqmfFPUxilh-94" value="&lt;font style=&quot;vertical-align: inherit;&quot;&gt;&lt;font style=&quot;vertical-align: inherit;&quot;&gt;Ticket&lt;/font&gt;&lt;/font&gt;" style="swimlane;fontStyle=0;childLayout=stackLayout;horizontal=1;startSize=26;fillColor=none;horizontalStack=0;resizeParent=1;resizeParentMax=0;resizeLast=0;collapsible=1;marginBottom=0;whiteSpace=wrap;html=1;" vertex="1" parent="1">
          <mxGeometry x="940" y="180" width="140" height="104" as="geometry">
            <mxRectangle x="240" y="414" width="140" height="30" as="alternateBounds" />
          </mxGeometry>
        </mxCell>
        <mxCell id="nfyMrxGbnOqmfFPUxilh-95" value="IdTicket" style="text;strokeColor=none;fillColor=none;align=left;verticalAlign=top;spacingLeft=4;spacingRight=4;overflow=hidden;rotatable=0;points=[[0,0.5],[1,0.5]];portConstraint=eastwest;whiteSpace=wrap;html=1;" vertex="1" parent="nfyMrxGbnOqmfFPUxilh-94">
          <mxGeometry y="26" width="140" height="26" as="geometry" />
        </mxCell>
        <mxCell id="nfyMrxGbnOqmfFPUxilh-96" value="Tipologia" style="text;strokeColor=none;fillColor=none;align=left;verticalAlign=top;spacingLeft=4;spacingRight=4;overflow=hidden;rotatable=0;points=[[0,0.5],[1,0.5]];portConstraint=eastwest;whiteSpace=wrap;html=1;" vertex="1" parent="nfyMrxGbnOqmfFPUxilh-94">
          <mxGeometry y="52" width="140" height="26" as="geometry" />
        </mxCell>
        <mxCell id="majqjS3A9KxO7dfuxN8L-8" value="Stato" style="text;strokeColor=none;fillColor=none;align=left;verticalAlign=top;spacingLeft=4;spacingRight=4;overflow=hidden;rotatable=0;points=[[0,0.5],[1,0.5]];portConstraint=eastwest;whiteSpace=wrap;html=1;" vertex="1" parent="nfyMrxGbnOqmfFPUxilh-94">
          <mxGeometry y="78" width="140" height="26" as="geometry" />
        </mxCell>
        <mxCell id="nfyMrxGbnOqmfFPUxilh-98" value="" style="endArrow=none;html=1;rounded=0;entryX=0;entryY=0.5;entryDx=0;entryDy=0;exitX=1;exitY=0.5;exitDx=0;exitDy=0;" edge="1" parent="1" source="nfyMrxGbnOqmfFPUxilh-30" target="nfyMrxGbnOqmfFPUxilh-95">
          <mxGeometry width="50" height="50" relative="1" as="geometry">
            <mxPoint x="910" y="330" as="sourcePoint" />
            <mxPoint x="960" y="280" as="targetPoint" />
          </mxGeometry>
        </mxCell>
        <mxCell id="nfyMrxGbnOqmfFPUxilh-99" value="" style="endArrow=none;html=1;rounded=0;exitX=1;exitY=0.5;exitDx=0;exitDy=0;entryX=0;entryY=0.5;entryDx=0;entryDy=0;" edge="1" parent="1" source="nfyMrxGbnOqmfFPUxilh-69" target="nfyMrxGbnOqmfFPUxilh-95">
          <mxGeometry width="50" height="50" relative="1" as="geometry">
            <mxPoint x="930" y="350" as="sourcePoint" />
            <mxPoint x="940" y="200" as="targetPoint" />
          </mxGeometry>
        </mxCell>
        <mxCell id="nfyMrxGbnOqmfFPUxilh-100" value="" style="endArrow=none;html=1;rounded=0;exitX=0.5;exitY=0;exitDx=0;exitDy=0;" edge="1" parent="1" source="nfyMrxGbnOqmfFPUxilh-94">
          <mxGeometry width="50" height="50" relative="1" as="geometry">
            <mxPoint x="960" y="100" as="sourcePoint" />
            <mxPoint x="1010" y="30" as="targetPoint" />
          </mxGeometry>
        </mxCell>
        <mxCell id="nfyMrxGbnOqmfFPUxilh-101" value="" style="endArrow=none;html=1;rounded=0;exitX=1.016;exitY=0.192;exitDx=0;exitDy=0;exitPerimeter=0;" edge="1" parent="1" source="nfyMrxGbnOqmfFPUxilh-6">
          <mxGeometry width="50" height="50" relative="1" as="geometry">
            <mxPoint x="830" y="70" as="sourcePoint" />
            <mxPoint x="1010" y="30" as="targetPoint" />
          </mxGeometry>
        </mxCell>
        <mxCell id="nfyMrxGbnOqmfFPUxilh-102" value="" style="endArrow=none;html=1;rounded=0;exitX=0.5;exitY=0;exitDx=0;exitDy=0;entryX=0.499;entryY=1.026;entryDx=0;entryDy=0;entryPerimeter=0;" edge="1" parent="1" source="nfyMrxGbnOqmfFPUxilh-87" target="majqjS3A9KxO7dfuxN8L-8">
          <mxGeometry width="50" height="50" relative="1" as="geometry">
            <mxPoint x="700" y="230" as="sourcePoint" />
            <mxPoint x="1009" y="290" as="targetPoint" />
          </mxGeometry>
        </mxCell>
        <mxCell id="majqjS3A9KxO7dfuxN8L-12" style="edgeStyle=orthogonalEdgeStyle;rounded=0;orthogonalLoop=1;jettySize=auto;html=1;entryX=0;entryY=0.5;entryDx=0;entryDy=0;endArrow=none;endFill=0;" edge="1" parent="1" source="nfyMrxGbnOqmfFPUxilh-106" target="majqjS3A9KxO7dfuxN8L-10">
          <mxGeometry relative="1" as="geometry" />
        </mxCell>
        <mxCell id="nfyMrxGbnOqmfFPUxilh-106" value="&lt;font style=&quot;vertical-align: inherit;&quot;&gt;&lt;font style=&quot;vertical-align: inherit;&quot;&gt;Itinerario&lt;/font&gt;&lt;/font&gt;" style="swimlane;fontStyle=0;childLayout=stackLayout;horizontal=1;startSize=26;fillColor=none;horizontalStack=0;resizeParent=1;resizeParentMax=0;resizeLast=0;collapsible=1;marginBottom=0;whiteSpace=wrap;html=1;" vertex="1" parent="1">
          <mxGeometry x="1190" y="192" width="140" height="80" as="geometry" />
        </mxCell>
        <mxCell id="nfyMrxGbnOqmfFPUxilh-107" value="IdItinerario" style="text;strokeColor=none;fillColor=none;align=left;verticalAlign=top;spacingLeft=4;spacingRight=4;overflow=hidden;rotatable=0;points=[[0,0.5],[1,0.5]];portConstraint=eastwest;whiteSpace=wrap;html=1;" vertex="1" parent="nfyMrxGbnOqmfFPUxilh-106">
          <mxGeometry y="26" width="140" height="26" as="geometry" />
        </mxCell>
        <mxCell id="nfyMrxGbnOqmfFPUxilh-108" value="Tipologia" style="text;strokeColor=none;fillColor=none;align=left;verticalAlign=top;spacingLeft=4;spacingRight=4;overflow=hidden;rotatable=0;points=[[0,0.5],[1,0.5]];portConstraint=eastwest;whiteSpace=wrap;html=1;" vertex="1" parent="nfyMrxGbnOqmfFPUxilh-106">
          <mxGeometry y="52" width="140" height="28" as="geometry" />
        </mxCell>
        <mxCell id="nfyMrxGbnOqmfFPUxilh-109" value="" style="endArrow=none;html=1;rounded=0;entryX=1;entryY=0.5;entryDx=0;entryDy=0;exitX=-0.004;exitY=0.059;exitDx=0;exitDy=0;exitPerimeter=0;" edge="1" parent="1" source="nfyMrxGbnOqmfFPUxilh-108" target="nfyMrxGbnOqmfFPUxilh-96">
          <mxGeometry width="50" height="50" relative="1" as="geometry">
            <mxPoint x="940" y="390" as="sourcePoint" />
            <mxPoint x="990" y="340" as="targetPoint" />
          </mxGeometry>
        </mxCell>
        <mxCell id="nfyMrxGbnOqmfFPUxilh-110" value="*" style="text;html=1;align=center;verticalAlign=middle;resizable=0;points=[];autosize=1;strokeColor=none;fillColor=none;" vertex="1" parent="1">
          <mxGeometry x="415" y="104" width="30" height="30" as="geometry" />
        </mxCell>
        <mxCell id="nfyMrxGbnOqmfFPUxilh-111" value="1..*" style="text;html=1;align=center;verticalAlign=middle;resizable=0;points=[];autosize=1;strokeColor=none;fillColor=none;" vertex="1" parent="1">
          <mxGeometry x="445" y="118" width="40" height="30" as="geometry" />
        </mxCell>
        <mxCell id="nfyMrxGbnOqmfFPUxilh-112" value="1" style="text;html=1;align=center;verticalAlign=middle;resizable=0;points=[];autosize=1;strokeColor=none;fillColor=none;" vertex="1" parent="1">
          <mxGeometry x="530" y="68" width="30" height="30" as="geometry" />
        </mxCell>
        <mxCell id="nfyMrxGbnOqmfFPUxilh-113" value="1" style="text;html=1;align=center;verticalAlign=middle;resizable=0;points=[];autosize=1;strokeColor=none;fillColor=none;" vertex="1" parent="1">
          <mxGeometry x="530" y="88" width="30" height="30" as="geometry" />
        </mxCell>
        <mxCell id="nfyMrxGbnOqmfFPUxilh-115" value="1" style="text;html=1;align=center;verticalAlign=middle;resizable=0;points=[];autosize=1;strokeColor=none;fillColor=none;" vertex="1" parent="1">
          <mxGeometry x="530" y="166" width="30" height="30" as="geometry" />
        </mxCell>
        <mxCell id="nfyMrxGbnOqmfFPUxilh-116" value="*" style="text;html=1;align=center;verticalAlign=middle;resizable=0;points=[];autosize=1;strokeColor=none;fillColor=none;" vertex="1" parent="1">
          <mxGeometry x="530" y="192" width="30" height="30" as="geometry" />
        </mxCell>
        <mxCell id="nfyMrxGbnOqmfFPUxilh-117" value="1" style="text;html=1;align=center;verticalAlign=middle;resizable=0;points=[];autosize=1;strokeColor=none;fillColor=none;" vertex="1" parent="1">
          <mxGeometry x="610" y="118" width="30" height="30" as="geometry" />
        </mxCell>
        <mxCell id="nfyMrxGbnOqmfFPUxilh-118" value="*" style="text;html=1;align=center;verticalAlign=middle;resizable=0;points=[];autosize=1;strokeColor=none;fillColor=none;" vertex="1" parent="1">
          <mxGeometry x="681" y="110" width="30" height="30" as="geometry" />
        </mxCell>
        <mxCell id="nfyMrxGbnOqmfFPUxilh-119" value="1" style="text;html=1;align=center;verticalAlign=middle;resizable=0;points=[];autosize=1;strokeColor=none;fillColor=none;" vertex="1" parent="1">
          <mxGeometry x="1000" y="158" width="30" height="30" as="geometry" />
        </mxCell>
        <mxCell id="nfyMrxGbnOqmfFPUxilh-120" value="*" style="text;html=1;align=center;verticalAlign=middle;resizable=0;points=[];autosize=1;strokeColor=none;fillColor=none;" vertex="1" parent="1">
          <mxGeometry x="625" y="-4" width="30" height="30" as="geometry" />
        </mxCell>
        <mxCell id="nfyMrxGbnOqmfFPUxilh-121" value="1" style="text;html=1;align=center;verticalAlign=middle;whiteSpace=wrap;rounded=0;" vertex="1" parent="1">
          <mxGeometry x="760" y="216" width="20" height="16" as="geometry" />
        </mxCell>
        <mxCell id="nfyMrxGbnOqmfFPUxilh-122" value="*" style="text;html=1;align=center;verticalAlign=middle;resizable=0;points=[];autosize=1;strokeColor=none;fillColor=none;" vertex="1" parent="1">
          <mxGeometry x="755" y="184" width="30" height="30" as="geometry" />
        </mxCell>
        <mxCell id="nfyMrxGbnOqmfFPUxilh-124" value="*" style="text;html=1;align=center;verticalAlign=middle;resizable=0;points=[];autosize=1;strokeColor=none;fillColor=none;" vertex="1" parent="1">
          <mxGeometry x="870" y="151" width="30" height="30" as="geometry" />
        </mxCell>
        <mxCell id="nfyMrxGbnOqmfFPUxilh-125" value="1" style="text;html=1;align=center;verticalAlign=middle;resizable=0;points=[];autosize=1;strokeColor=none;fillColor=none;" vertex="1" parent="1">
          <mxGeometry x="915" y="218" width="30" height="30" as="geometry" />
        </mxCell>
        <mxCell id="nfyMrxGbnOqmfFPUxilh-126" value="*" style="text;html=1;align=center;verticalAlign=middle;resizable=0;points=[];autosize=1;strokeColor=none;fillColor=none;" vertex="1" parent="1">
          <mxGeometry x="851" y="258" width="30" height="30" as="geometry" />
        </mxCell>
        <mxCell id="nfyMrxGbnOqmfFPUxilh-127" value="*" style="text;html=1;align=center;verticalAlign=middle;resizable=0;points=[];autosize=1;strokeColor=none;fillColor=none;" vertex="1" parent="1">
          <mxGeometry x="860" y="121" width="30" height="30" as="geometry" />
        </mxCell>
        <mxCell id="nfyMrxGbnOqmfFPUxilh-128" value="1" style="text;html=1;align=center;verticalAlign=middle;whiteSpace=wrap;rounded=0;" vertex="1" parent="1">
          <mxGeometry x="836" y="440" width="60" height="30" as="geometry" />
        </mxCell>
        <mxCell id="nfyMrxGbnOqmfFPUxilh-129" value="1" style="text;html=1;align=center;verticalAlign=middle;resizable=0;points=[];autosize=1;strokeColor=none;fillColor=none;" vertex="1" parent="1">
          <mxGeometry x="975" y="308" width="30" height="30" as="geometry" />
        </mxCell>
        <mxCell id="nfyMrxGbnOqmfFPUxilh-130" value="*" style="text;html=1;align=center;verticalAlign=middle;resizable=0;points=[];autosize=1;strokeColor=none;fillColor=none;" vertex="1" parent="1">
          <mxGeometry x="975" y="282" width="30" height="30" as="geometry" />
        </mxCell>
        <mxCell id="nfyMrxGbnOqmfFPUxilh-131" value="*" style="text;html=1;align=center;verticalAlign=middle;resizable=0;points=[];autosize=1;strokeColor=none;fillColor=none;" vertex="1" parent="1">
          <mxGeometry x="1380" y="209" width="30" height="30" as="geometry" />
        </mxCell>
        <mxCell id="nfyMrxGbnOqmfFPUxilh-132" value="1" style="text;html=1;align=center;verticalAlign=middle;resizable=0;points=[];autosize=1;strokeColor=none;fillColor=none;" vertex="1" parent="1">
          <mxGeometry x="1160" y="217" width="30" height="30" as="geometry" />
        </mxCell>
        <mxCell id="nfyMrxGbnOqmfFPUxilh-133" value="1" style="text;html=1;align=center;verticalAlign=middle;resizable=0;points=[];autosize=1;strokeColor=none;fillColor=none;" vertex="1" parent="1">
          <mxGeometry x="750" y="312" width="30" height="30" as="geometry" />
        </mxCell>
        <mxCell id="nfyMrxGbnOqmfFPUxilh-134" value="1" style="text;html=1;align=center;verticalAlign=middle;resizable=0;points=[];autosize=1;strokeColor=none;fillColor=none;" vertex="1" parent="1">
          <mxGeometry x="535" y="378" width="30" height="30" as="geometry" />
        </mxCell>
        <mxCell id="nfyMrxGbnOqmfFPUxilh-135" value="1" style="text;html=1;align=center;verticalAlign=middle;whiteSpace=wrap;rounded=0;" vertex="1" parent="1">
          <mxGeometry x="735" y="605.5" width="60" height="30" as="geometry" />
        </mxCell>
        <mxCell id="nfyMrxGbnOqmfFPUxilh-136" value="1..*" style="text;html=1;align=center;verticalAlign=middle;resizable=0;points=[];autosize=1;strokeColor=none;fillColor=none;" vertex="1" parent="1">
          <mxGeometry x="750" y="557" width="40" height="30" as="geometry" />
        </mxCell>
        <mxCell id="nfyMrxGbnOqmfFPUxilh-137" value="1" style="text;html=1;align=center;verticalAlign=middle;resizable=0;points=[];autosize=1;strokeColor=none;fillColor=none;" vertex="1" parent="1">
          <mxGeometry x="625" y="438" width="30" height="30" as="geometry" />
        </mxCell>
        <mxCell id="nfyMrxGbnOqmfFPUxilh-138" value="*" style="text;html=1;align=center;verticalAlign=middle;resizable=0;points=[];autosize=1;strokeColor=none;fillColor=none;" vertex="1" parent="1">
          <mxGeometry x="681" y="440" width="30" height="30" as="geometry" />
        </mxCell>
        <mxCell id="majqjS3A9KxO7dfuxN8L-9" value="&lt;font style=&quot;vertical-align: inherit;&quot;&gt;&lt;font style=&quot;vertical-align: inherit;&quot;&gt;Tappa&lt;/font&gt;&lt;/font&gt;" style="swimlane;fontStyle=0;childLayout=stackLayout;horizontal=1;startSize=26;fillColor=none;horizontalStack=0;resizeParent=1;resizeParentMax=0;resizeLast=0;collapsible=1;marginBottom=0;whiteSpace=wrap;html=1;" vertex="1" parent="1">
          <mxGeometry x="1400" y="193" width="140" height="80" as="geometry" />
        </mxCell>
        <mxCell id="majqjS3A9KxO7dfuxN8L-10" value="IdTappa" style="text;strokeColor=none;fillColor=none;align=left;verticalAlign=top;spacingLeft=4;spacingRight=4;overflow=hidden;rotatable=0;points=[[0,0.5],[1,0.5]];portConstraint=eastwest;whiteSpace=wrap;html=1;" vertex="1" parent="majqjS3A9KxO7dfuxN8L-9">
          <mxGeometry y="26" width="140" height="26" as="geometry" />
        </mxCell>
        <mxCell id="majqjS3A9KxO7dfuxN8L-11" value="Stato" style="text;strokeColor=none;fillColor=none;align=left;verticalAlign=top;spacingLeft=4;spacingRight=4;overflow=hidden;rotatable=0;points=[[0,0.5],[1,0.5]];portConstraint=eastwest;whiteSpace=wrap;html=1;" vertex="1" parent="majqjS3A9KxO7dfuxN8L-9">
          <mxGeometry y="52" width="140" height="28" as="geometry" />
        </mxCell>
        <mxCell id="majqjS3A9KxO7dfuxN8L-14" value="1" style="text;html=1;align=center;verticalAlign=middle;resizable=0;points=[];autosize=1;strokeColor=none;fillColor=none;" vertex="1" parent="1">
          <mxGeometry x="520" y="-32" width="30" height="30" as="geometry" />
        </mxCell>
        <mxCell id="majqjS3A9KxO7dfuxN8L-15" value="1" style="text;html=1;align=center;verticalAlign=middle;resizable=0;points=[];autosize=1;strokeColor=none;fillColor=none;" vertex="1" parent="1">
          <mxGeometry x="1440" y="166" width="30" height="30" as="geometry" />
        </mxCell>
        <mxCell id="majqjS3A9KxO7dfuxN8L-53" value="&lt;font style=&quot;vertical-align: inherit;&quot;&gt;&lt;font style=&quot;vertical-align: inherit;&quot;&gt;&lt;font style=&quot;vertical-align: inherit;&quot;&gt;&lt;font style=&quot;vertical-align: inherit;&quot;&gt;Cliente&lt;/font&gt;&lt;/font&gt;&lt;/font&gt;&lt;/font&gt;" style="swimlane;fontStyle=0;childLayout=stackLayout;horizontal=1;startSize=26;fillColor=none;horizontalStack=0;resizeParent=1;resizeParentMax=0;resizeLast=0;collapsible=1;marginBottom=0;whiteSpace=wrap;html=1;" vertex="1" parent="1">
          <mxGeometry x="2230" y="295.25" width="140" height="80" as="geometry" />
        </mxCell>
        <mxCell id="majqjS3A9KxO7dfuxN8L-54" value="IdCliente" style="text;strokeColor=none;fillColor=none;align=left;verticalAlign=top;spacingLeft=4;spacingRight=4;overflow=hidden;rotatable=0;points=[[0,0.5],[1,0.5]];portConstraint=eastwest;whiteSpace=wrap;html=1;" vertex="1" parent="majqjS3A9KxO7dfuxN8L-53">
          <mxGeometry y="26" width="140" height="26" as="geometry" />
        </mxCell>
        <mxCell id="majqjS3A9KxO7dfuxN8L-55" value="&lt;i&gt;Dati Registrazione&lt;/i&gt;" style="text;strokeColor=none;fillColor=none;align=left;verticalAlign=top;spacingLeft=4;spacingRight=4;overflow=hidden;rotatable=0;points=[[0,0.5],[1,0.5]];portConstraint=eastwest;whiteSpace=wrap;html=1;" vertex="1" parent="majqjS3A9KxO7dfuxN8L-53">
          <mxGeometry y="52" width="140" height="28" as="geometry" />
        </mxCell>
        <mxCell id="majqjS3A9KxO7dfuxN8L-169" style="edgeStyle=orthogonalEdgeStyle;rounded=0;orthogonalLoop=1;jettySize=auto;html=1;entryX=0.494;entryY=1.024;entryDx=0;entryDy=0;entryPerimeter=0;endArrow=none;endFill=0;" edge="1" parent="1" source="majqjS3A9KxO7dfuxN8L-57" target="majqjS3A9KxO7dfuxN8L-138">
          <mxGeometry relative="1" as="geometry">
            <mxPoint x="2500" y="-110.00000000000023" as="targetPoint" />
            <Array as="points">
              <mxPoint x="2500" y="50" />
              <mxPoint x="2499" y="50" />
            </Array>
          </mxGeometry>
        </mxCell>
        <mxCell id="majqjS3A9KxO7dfuxN8L-57" value="&lt;font style=&quot;vertical-align: inherit;&quot;&gt;&lt;font style=&quot;vertical-align: inherit;&quot;&gt;&lt;font style=&quot;vertical-align: inherit;&quot;&gt;&lt;font style=&quot;vertical-align: inherit;&quot;&gt;Negozio&lt;/font&gt;&lt;/font&gt;&lt;/font&gt;&lt;/font&gt;" style="swimlane;fontStyle=0;childLayout=stackLayout;horizontal=1;startSize=26;fillColor=none;horizontalStack=0;resizeParent=1;resizeParentMax=0;resizeLast=0;collapsible=1;marginBottom=0;whiteSpace=wrap;html=1;" vertex="1" parent="1">
          <mxGeometry x="2431" y="189.25" width="140" height="78" as="geometry" />
        </mxCell>
        <mxCell id="majqjS3A9KxO7dfuxN8L-58" value="IdNegozio" style="text;strokeColor=none;fillColor=none;align=left;verticalAlign=top;spacingLeft=4;spacingRight=4;overflow=hidden;rotatable=0;points=[[0,0.5],[1,0.5]];portConstraint=eastwest;whiteSpace=wrap;html=1;" vertex="1" parent="majqjS3A9KxO7dfuxN8L-57">
          <mxGeometry y="26" width="140" height="26" as="geometry" />
        </mxCell>
        <mxCell id="majqjS3A9KxO7dfuxN8L-59" value="StatoSportello" style="text;strokeColor=none;fillColor=none;align=left;verticalAlign=top;spacingLeft=4;spacingRight=4;overflow=hidden;rotatable=0;points=[[0,0.5],[1,0.5]];portConstraint=eastwest;whiteSpace=wrap;html=1;" vertex="1" parent="majqjS3A9KxO7dfuxN8L-57">
          <mxGeometry y="52" width="140" height="26" as="geometry" />
        </mxCell>
        <mxCell id="majqjS3A9KxO7dfuxN8L-158" style="edgeStyle=orthogonalEdgeStyle;rounded=0;orthogonalLoop=1;jettySize=auto;html=1;entryX=0.5;entryY=0;entryDx=0;entryDy=0;endArrow=none;endFill=0;" edge="1" parent="1" source="majqjS3A9KxO7dfuxN8L-60" target="majqjS3A9KxO7dfuxN8L-77">
          <mxGeometry relative="1" as="geometry" />
        </mxCell>
        <mxCell id="majqjS3A9KxO7dfuxN8L-60" value="&lt;font style=&quot;vertical-align: inherit;&quot;&gt;&lt;font style=&quot;vertical-align: inherit;&quot;&gt;Sede Lavorazione&lt;/font&gt;&lt;/font&gt;" style="swimlane;fontStyle=0;childLayout=stackLayout;horizontal=1;startSize=26;fillColor=none;horizontalStack=0;resizeParent=1;resizeParentMax=0;resizeLast=0;collapsible=1;marginBottom=0;whiteSpace=wrap;html=1;" vertex="1" parent="1">
          <mxGeometry x="3180" y="465.25" width="140" height="52" as="geometry">
            <mxRectangle x="240" y="414" width="140" height="30" as="alternateBounds" />
          </mxGeometry>
        </mxCell>
        <mxCell id="majqjS3A9KxO7dfuxN8L-61" value="IdSede" style="text;strokeColor=none;fillColor=none;align=left;verticalAlign=top;spacingLeft=4;spacingRight=4;overflow=hidden;rotatable=0;points=[[0,0.5],[1,0.5]];portConstraint=eastwest;whiteSpace=wrap;html=1;" vertex="1" parent="majqjS3A9KxO7dfuxN8L-60">
          <mxGeometry y="26" width="140" height="26" as="geometry" />
        </mxCell>
        <mxCell id="majqjS3A9KxO7dfuxN8L-168" style="edgeStyle=orthogonalEdgeStyle;rounded=0;orthogonalLoop=1;jettySize=auto;html=1;entryX=0;entryY=0.5;entryDx=0;entryDy=0;endArrow=none;endFill=0;" edge="1" parent="1" source="majqjS3A9KxO7dfuxN8L-64" target="majqjS3A9KxO7dfuxN8L-68">
          <mxGeometry relative="1" as="geometry">
            <Array as="points">
              <mxPoint x="2670" y="339" />
              <mxPoint x="2670" y="339" />
            </Array>
          </mxGeometry>
        </mxCell>
        <mxCell id="majqjS3A9KxO7dfuxN8L-64" value="Totem" style="swimlane;fontStyle=0;childLayout=stackLayout;horizontal=1;startSize=26;fillColor=none;horizontalStack=0;resizeParent=1;resizeParentMax=0;resizeLast=0;collapsible=1;marginBottom=0;whiteSpace=wrap;html=1;" vertex="1" parent="1">
          <mxGeometry x="2431" y="309.25" width="140" height="52" as="geometry" />
        </mxCell>
        <mxCell id="majqjS3A9KxO7dfuxN8L-65" value="IdTotem" style="text;strokeColor=none;fillColor=none;align=left;verticalAlign=top;spacingLeft=4;spacingRight=4;overflow=hidden;rotatable=0;points=[[0,0.5],[1,0.5]];portConstraint=eastwest;whiteSpace=wrap;html=1;" vertex="1" parent="majqjS3A9KxO7dfuxN8L-64">
          <mxGeometry y="26" width="140" height="26" as="geometry" />
        </mxCell>
        <mxCell id="majqjS3A9KxO7dfuxN8L-170" style="edgeStyle=orthogonalEdgeStyle;rounded=0;orthogonalLoop=1;jettySize=auto;html=1;entryX=0;entryY=0.5;entryDx=0;entryDy=0;endArrow=none;endFill=0;" edge="1" parent="1" source="majqjS3A9KxO7dfuxN8L-67" target="majqjS3A9KxO7dfuxN8L-87">
          <mxGeometry relative="1" as="geometry" />
        </mxCell>
        <mxCell id="majqjS3A9KxO7dfuxN8L-67" value="Capo" style="swimlane;fontStyle=0;childLayout=stackLayout;horizontal=1;startSize=26;fillColor=none;horizontalStack=0;resizeParent=1;resizeParentMax=0;resizeLast=0;collapsible=1;marginBottom=0;whiteSpace=wrap;html=1;" vertex="1" parent="1">
          <mxGeometry x="2970" y="301.25" width="140" height="78" as="geometry" />
        </mxCell>
        <mxCell id="majqjS3A9KxO7dfuxN8L-68" value="IdCapo" style="text;strokeColor=none;fillColor=none;align=left;verticalAlign=top;spacingLeft=4;spacingRight=4;overflow=hidden;rotatable=0;points=[[0,0.5],[1,0.5]];portConstraint=eastwest;whiteSpace=wrap;html=1;" vertex="1" parent="majqjS3A9KxO7dfuxN8L-67">
          <mxGeometry y="26" width="140" height="24" as="geometry" />
        </mxCell>
        <mxCell id="majqjS3A9KxO7dfuxN8L-69" value="StatoLavorazione" style="text;strokeColor=none;fillColor=none;align=left;verticalAlign=top;spacingLeft=4;spacingRight=4;overflow=hidden;rotatable=0;points=[[0,0.5],[1,0.5]];portConstraint=eastwest;whiteSpace=wrap;html=1;" vertex="1" parent="majqjS3A9KxO7dfuxN8L-67">
          <mxGeometry y="50" width="140" height="28" as="geometry" />
        </mxCell>
        <mxCell id="majqjS3A9KxO7dfuxN8L-70" value="Transazione" style="swimlane;fontStyle=0;childLayout=stackLayout;horizontal=1;startSize=26;fillColor=none;horizontalStack=0;resizeParent=1;resizeParentMax=0;resizeLast=0;collapsible=1;marginBottom=0;whiteSpace=wrap;html=1;" vertex="1" parent="1">
          <mxGeometry x="2431" y="413.25" width="140" height="80" as="geometry" />
        </mxCell>
        <mxCell id="majqjS3A9KxO7dfuxN8L-71" value="IdTransazione" style="text;strokeColor=none;fillColor=none;align=left;verticalAlign=top;spacingLeft=4;spacingRight=4;overflow=hidden;rotatable=0;points=[[0,0.5],[1,0.5]];portConstraint=eastwest;whiteSpace=wrap;html=1;" vertex="1" parent="majqjS3A9KxO7dfuxN8L-70">
          <mxGeometry y="26" width="140" height="26" as="geometry" />
        </mxCell>
        <mxCell id="majqjS3A9KxO7dfuxN8L-72" value="Pagamento" style="text;strokeColor=none;fillColor=none;align=left;verticalAlign=top;spacingLeft=4;spacingRight=4;overflow=hidden;rotatable=0;points=[[0,0.5],[1,0.5]];portConstraint=eastwest;whiteSpace=wrap;html=1;" vertex="1" parent="majqjS3A9KxO7dfuxN8L-70">
          <mxGeometry y="52" width="140" height="28" as="geometry" />
        </mxCell>
        <mxCell id="majqjS3A9KxO7dfuxN8L-74" value="Operatore" style="swimlane;fontStyle=0;childLayout=stackLayout;horizontal=1;startSize=26;fillColor=none;horizontalStack=0;resizeParent=1;resizeParentMax=0;resizeLast=0;collapsible=1;marginBottom=0;whiteSpace=wrap;html=1;" vertex="1" parent="1">
          <mxGeometry x="3450" y="680" width="140" height="78" as="geometry" />
        </mxCell>
        <mxCell id="majqjS3A9KxO7dfuxN8L-75" value="IdLavoratore" style="text;strokeColor=none;fillColor=none;align=left;verticalAlign=top;spacingLeft=4;spacingRight=4;overflow=hidden;rotatable=0;points=[[0,0.5],[1,0.5]];portConstraint=eastwest;whiteSpace=wrap;html=1;" vertex="1" parent="majqjS3A9KxO7dfuxN8L-74">
          <mxGeometry y="26" width="140" height="26" as="geometry" />
        </mxCell>
        <mxCell id="majqjS3A9KxO7dfuxN8L-76" value="TipoOperatore" style="text;strokeColor=none;fillColor=none;align=left;verticalAlign=top;spacingLeft=4;spacingRight=4;overflow=hidden;rotatable=0;points=[[0,0.5],[1,0.5]];portConstraint=eastwest;whiteSpace=wrap;html=1;" vertex="1" parent="majqjS3A9KxO7dfuxN8L-74">
          <mxGeometry y="52" width="140" height="26" as="geometry" />
        </mxCell>
        <mxCell id="majqjS3A9KxO7dfuxN8L-77" value="Macchinario/Stazione di lavoro" style="swimlane;fontStyle=0;childLayout=stackLayout;horizontal=1;startSize=26;fillColor=none;horizontalStack=0;resizeParent=1;resizeParentMax=0;resizeLast=0;collapsible=1;marginBottom=0;whiteSpace=wrap;html=1;" vertex="1" parent="1">
          <mxGeometry x="3180" y="650" width="140" height="130" as="geometry" />
        </mxCell>
        <mxCell id="majqjS3A9KxO7dfuxN8L-78" value="IdStazione" style="text;strokeColor=none;fillColor=none;align=left;verticalAlign=top;spacingLeft=4;spacingRight=4;overflow=hidden;rotatable=0;points=[[0,0.5],[1,0.5]];portConstraint=eastwest;whiteSpace=wrap;html=1;" vertex="1" parent="majqjS3A9KxO7dfuxN8L-77">
          <mxGeometry y="26" width="140" height="26" as="geometry" />
        </mxCell>
        <mxCell id="majqjS3A9KxO7dfuxN8L-79" value="TipoMacchinario" style="text;strokeColor=none;fillColor=none;align=left;verticalAlign=top;spacingLeft=4;spacingRight=4;overflow=hidden;rotatable=0;points=[[0,0.5],[1,0.5]];portConstraint=eastwest;whiteSpace=wrap;html=1;" vertex="1" parent="majqjS3A9KxO7dfuxN8L-77">
          <mxGeometry y="52" width="140" height="26" as="geometry" />
        </mxCell>
        <mxCell id="majqjS3A9KxO7dfuxN8L-80" value="StatoMacchinario" style="text;strokeColor=none;fillColor=none;align=left;verticalAlign=top;spacingLeft=4;spacingRight=4;overflow=hidden;rotatable=0;points=[[0,0.5],[1,0.5]];portConstraint=eastwest;whiteSpace=wrap;html=1;" vertex="1" parent="majqjS3A9KxO7dfuxN8L-77">
          <mxGeometry y="78" width="140" height="26" as="geometry" />
        </mxCell>
        <mxCell id="majqjS3A9KxO7dfuxN8L-81" value="LivelloProdottoLavaggio" style="text;strokeColor=none;fillColor=none;align=left;verticalAlign=top;spacingLeft=4;spacingRight=4;overflow=hidden;rotatable=0;points=[[0,0.5],[1,0.5]];portConstraint=eastwest;whiteSpace=wrap;html=1;" vertex="1" parent="majqjS3A9KxO7dfuxN8L-77">
          <mxGeometry y="104" width="140" height="26" as="geometry" />
        </mxCell>
        <mxCell id="majqjS3A9KxO7dfuxN8L-82" value="" style="endArrow=none;html=1;rounded=0;exitX=0.5;exitY=0;exitDx=0;exitDy=0;" edge="1" parent="1" source="majqjS3A9KxO7dfuxN8L-64">
          <mxGeometry width="50" height="50" relative="1" as="geometry">
            <mxPoint x="2291" y="499.25" as="sourcePoint" />
            <mxPoint x="2501" y="270.25" as="targetPoint" />
          </mxGeometry>
        </mxCell>
        <mxCell id="majqjS3A9KxO7dfuxN8L-83" value="" style="endArrow=none;html=1;rounded=0;entryX=0;entryY=0.5;entryDx=0;entryDy=0;exitX=1;exitY=0.5;exitDx=0;exitDy=0;" edge="1" parent="1" source="majqjS3A9KxO7dfuxN8L-53" target="majqjS3A9KxO7dfuxN8L-64">
          <mxGeometry width="50" height="50" relative="1" as="geometry">
            <mxPoint x="2311" y="459.25" as="sourcePoint" />
            <mxPoint x="2361" y="409.25" as="targetPoint" />
          </mxGeometry>
        </mxCell>
        <mxCell id="majqjS3A9KxO7dfuxN8L-84" value="" style="endArrow=none;html=1;rounded=0;exitX=0.498;exitY=1.047;exitDx=0;exitDy=0;exitPerimeter=0;entryX=0.5;entryY=0;entryDx=0;entryDy=0;" edge="1" parent="1" source="majqjS3A9KxO7dfuxN8L-65" target="majqjS3A9KxO7dfuxN8L-70">
          <mxGeometry width="50" height="50" relative="1" as="geometry">
            <mxPoint x="2581" y="339.25" as="sourcePoint" />
            <mxPoint x="2631" y="289.25" as="targetPoint" />
          </mxGeometry>
        </mxCell>
        <mxCell id="majqjS3A9KxO7dfuxN8L-157" style="edgeStyle=orthogonalEdgeStyle;rounded=0;orthogonalLoop=1;jettySize=auto;html=1;entryX=0.5;entryY=0;entryDx=0;entryDy=0;endArrow=none;endFill=0;" edge="1" parent="1" source="majqjS3A9KxO7dfuxN8L-86" target="majqjS3A9KxO7dfuxN8L-60">
          <mxGeometry relative="1" as="geometry" />
        </mxCell>
        <mxCell id="majqjS3A9KxO7dfuxN8L-86" value="&lt;font style=&quot;vertical-align: inherit;&quot;&gt;&lt;font style=&quot;vertical-align: inherit;&quot;&gt;Pallet&lt;/font&gt;&lt;/font&gt;" style="swimlane;fontStyle=0;childLayout=stackLayout;horizontal=1;startSize=26;fillColor=none;horizontalStack=0;resizeParent=1;resizeParentMax=0;resizeLast=0;collapsible=1;marginBottom=0;whiteSpace=wrap;html=1;" vertex="1" parent="1">
          <mxGeometry x="3180" y="301.25" width="140" height="80" as="geometry" />
        </mxCell>
        <mxCell id="majqjS3A9KxO7dfuxN8L-87" value="IdPallet" style="text;strokeColor=none;fillColor=none;align=left;verticalAlign=top;spacingLeft=4;spacingRight=4;overflow=hidden;rotatable=0;points=[[0,0.5],[1,0.5]];portConstraint=eastwest;whiteSpace=wrap;html=1;" vertex="1" parent="majqjS3A9KxO7dfuxN8L-86">
          <mxGeometry y="26" width="140" height="26" as="geometry" />
        </mxCell>
        <mxCell id="majqjS3A9KxO7dfuxN8L-88" value="TipoCapiContenuti" style="text;strokeColor=none;fillColor=none;align=left;verticalAlign=top;spacingLeft=4;spacingRight=4;overflow=hidden;rotatable=0;points=[[0,0.5],[1,0.5]];portConstraint=eastwest;whiteSpace=wrap;html=1;" vertex="1" parent="majqjS3A9KxO7dfuxN8L-86">
          <mxGeometry y="52" width="140" height="28" as="geometry" />
        </mxCell>
        <mxCell id="majqjS3A9KxO7dfuxN8L-162" style="edgeStyle=orthogonalEdgeStyle;rounded=0;orthogonalLoop=1;jettySize=auto;html=1;entryX=1;entryY=0.5;entryDx=0;entryDy=0;endArrow=none;endFill=0;" edge="1" parent="1" source="majqjS3A9KxO7dfuxN8L-105" target="majqjS3A9KxO7dfuxN8L-137">
          <mxGeometry relative="1" as="geometry" />
        </mxCell>
        <mxCell id="majqjS3A9KxO7dfuxN8L-105" value="&lt;font style=&quot;vertical-align: inherit;&quot;&gt;&lt;font style=&quot;vertical-align: inherit;&quot;&gt;Itinerario&lt;/font&gt;&lt;/font&gt;" style="swimlane;fontStyle=0;childLayout=stackLayout;horizontal=1;startSize=26;fillColor=none;horizontalStack=0;resizeParent=1;resizeParentMax=0;resizeLast=0;collapsible=1;marginBottom=0;whiteSpace=wrap;html=1;" vertex="1" parent="1">
          <mxGeometry x="2716" y="-201" width="140" height="80" as="geometry" />
        </mxCell>
        <mxCell id="majqjS3A9KxO7dfuxN8L-106" value="IdItinerario" style="text;strokeColor=none;fillColor=none;align=left;verticalAlign=top;spacingLeft=4;spacingRight=4;overflow=hidden;rotatable=0;points=[[0,0.5],[1,0.5]];portConstraint=eastwest;whiteSpace=wrap;html=1;" vertex="1" parent="majqjS3A9KxO7dfuxN8L-105">
          <mxGeometry y="26" width="140" height="26" as="geometry" />
        </mxCell>
        <mxCell id="majqjS3A9KxO7dfuxN8L-107" value="Tipologia" style="text;strokeColor=none;fillColor=none;align=left;verticalAlign=top;spacingLeft=4;spacingRight=4;overflow=hidden;rotatable=0;points=[[0,0.5],[1,0.5]];portConstraint=eastwest;whiteSpace=wrap;html=1;" vertex="1" parent="majqjS3A9KxO7dfuxN8L-105">
          <mxGeometry y="52" width="140" height="28" as="geometry" />
        </mxCell>
        <mxCell id="majqjS3A9KxO7dfuxN8L-109" value="*" style="text;html=1;align=center;verticalAlign=middle;resizable=0;points=[];autosize=1;strokeColor=none;fillColor=none;" vertex="1" parent="1">
          <mxGeometry x="2365" y="309.25" width="30" height="30" as="geometry" />
        </mxCell>
        <mxCell id="majqjS3A9KxO7dfuxN8L-110" value="1..*" style="text;html=1;align=center;verticalAlign=middle;resizable=0;points=[];autosize=1;strokeColor=none;fillColor=none;" vertex="1" parent="1">
          <mxGeometry x="2395" y="309.25" width="40" height="30" as="geometry" />
        </mxCell>
        <mxCell id="majqjS3A9KxO7dfuxN8L-111" value="1" style="text;html=1;align=center;verticalAlign=middle;resizable=0;points=[];autosize=1;strokeColor=none;fillColor=none;" vertex="1" parent="1">
          <mxGeometry x="2480" y="259.25" width="30" height="30" as="geometry" />
        </mxCell>
        <mxCell id="majqjS3A9KxO7dfuxN8L-112" value="1" style="text;html=1;align=center;verticalAlign=middle;resizable=0;points=[];autosize=1;strokeColor=none;fillColor=none;" vertex="1" parent="1">
          <mxGeometry x="2480" y="279.25" width="30" height="30" as="geometry" />
        </mxCell>
        <mxCell id="majqjS3A9KxO7dfuxN8L-113" value="1" style="text;html=1;align=center;verticalAlign=middle;resizable=0;points=[];autosize=1;strokeColor=none;fillColor=none;" vertex="1" parent="1">
          <mxGeometry x="2480" y="357.25" width="30" height="30" as="geometry" />
        </mxCell>
        <mxCell id="majqjS3A9KxO7dfuxN8L-114" value="*" style="text;html=1;align=center;verticalAlign=middle;resizable=0;points=[];autosize=1;strokeColor=none;fillColor=none;" vertex="1" parent="1">
          <mxGeometry x="2480" y="387.25" width="30" height="30" as="geometry" />
        </mxCell>
        <mxCell id="majqjS3A9KxO7dfuxN8L-115" value="1" style="text;html=1;align=center;verticalAlign=middle;resizable=0;points=[];autosize=1;strokeColor=none;fillColor=none;" vertex="1" parent="1">
          <mxGeometry x="2571" y="310" width="30" height="30" as="geometry" />
        </mxCell>
        <mxCell id="majqjS3A9KxO7dfuxN8L-116" value="*" style="text;html=1;align=center;verticalAlign=middle;resizable=0;points=[];autosize=1;strokeColor=none;fillColor=none;" vertex="1" parent="1">
          <mxGeometry x="3010" y="278" width="30" height="30" as="geometry" />
        </mxCell>
        <mxCell id="majqjS3A9KxO7dfuxN8L-120" value="*" style="text;html=1;align=center;verticalAlign=middle;resizable=0;points=[];autosize=1;strokeColor=none;fillColor=none;" vertex="1" parent="1">
          <mxGeometry x="2940" y="308" width="30" height="30" as="geometry" />
        </mxCell>
        <mxCell id="majqjS3A9KxO7dfuxN8L-121" value="*" style="text;html=1;align=center;verticalAlign=middle;resizable=0;points=[];autosize=1;strokeColor=none;fillColor=none;" vertex="1" parent="1">
          <mxGeometry x="3246" y="271.25" width="30" height="30" as="geometry" />
        </mxCell>
        <mxCell id="majqjS3A9KxO7dfuxN8L-123" value="1" style="text;html=1;align=center;verticalAlign=middle;resizable=0;points=[];autosize=1;strokeColor=none;fillColor=none;" vertex="1" parent="1">
          <mxGeometry x="3246" y="435.25" width="30" height="30" as="geometry" />
        </mxCell>
        <mxCell id="majqjS3A9KxO7dfuxN8L-124" value="1" style="text;html=1;align=center;verticalAlign=middle;resizable=0;points=[];autosize=1;strokeColor=none;fillColor=none;" vertex="1" parent="1">
          <mxGeometry x="3246" y="159.25" width="30" height="30" as="geometry" />
        </mxCell>
        <mxCell id="majqjS3A9KxO7dfuxN8L-125" value="1" style="text;html=1;align=center;verticalAlign=middle;whiteSpace=wrap;rounded=0;" vertex="1" parent="1">
          <mxGeometry x="3020" y="159.25" width="60" height="30" as="geometry" />
        </mxCell>
        <mxCell id="majqjS3A9KxO7dfuxN8L-128" value="*" style="text;html=1;align=center;verticalAlign=middle;resizable=0;points=[];autosize=1;strokeColor=none;fillColor=none;" vertex="1" parent="1">
          <mxGeometry x="2570" y="-188" width="30" height="30" as="geometry" />
        </mxCell>
        <mxCell id="majqjS3A9KxO7dfuxN8L-129" value="1" style="text;html=1;align=center;verticalAlign=middle;resizable=0;points=[];autosize=1;strokeColor=none;fillColor=none;" vertex="1" parent="1">
          <mxGeometry x="2686" y="-188" width="30" height="30" as="geometry" />
        </mxCell>
        <mxCell id="majqjS3A9KxO7dfuxN8L-130" value="*" style="text;html=1;align=center;verticalAlign=middle;resizable=0;points=[];autosize=1;strokeColor=none;fillColor=none;" vertex="1" parent="1">
          <mxGeometry x="3246" y="620" width="30" height="30" as="geometry" />
        </mxCell>
        <mxCell id="majqjS3A9KxO7dfuxN8L-131" value="1..*" style="text;html=1;align=center;verticalAlign=middle;resizable=0;points=[];autosize=1;strokeColor=none;fillColor=none;" vertex="1" parent="1">
          <mxGeometry x="3246" y="387.25" width="40" height="30" as="geometry" />
        </mxCell>
        <mxCell id="majqjS3A9KxO7dfuxN8L-134" value="1" style="text;html=1;align=center;verticalAlign=middle;resizable=0;points=[];autosize=1;strokeColor=none;fillColor=none;" vertex="1" parent="1">
          <mxGeometry x="3246" y="517.25" width="30" height="30" as="geometry" />
        </mxCell>
        <mxCell id="majqjS3A9KxO7dfuxN8L-136" value="&lt;font style=&quot;vertical-align: inherit;&quot;&gt;&lt;font style=&quot;vertical-align: inherit;&quot;&gt;Tappa&lt;/font&gt;&lt;/font&gt;" style="swimlane;fontStyle=0;childLayout=stackLayout;horizontal=1;startSize=26;fillColor=none;horizontalStack=0;resizeParent=1;resizeParentMax=0;resizeLast=0;collapsible=1;marginBottom=0;whiteSpace=wrap;html=1;" vertex="1" parent="1">
          <mxGeometry x="2430" y="-200" width="140" height="80" as="geometry" />
        </mxCell>
        <mxCell id="majqjS3A9KxO7dfuxN8L-137" value="IdTappa" style="text;strokeColor=none;fillColor=none;align=left;verticalAlign=top;spacingLeft=4;spacingRight=4;overflow=hidden;rotatable=0;points=[[0,0.5],[1,0.5]];portConstraint=eastwest;whiteSpace=wrap;html=1;" vertex="1" parent="majqjS3A9KxO7dfuxN8L-136">
          <mxGeometry y="26" width="140" height="26" as="geometry" />
        </mxCell>
        <mxCell id="majqjS3A9KxO7dfuxN8L-138" value="Stato" style="text;strokeColor=none;fillColor=none;align=left;verticalAlign=top;spacingLeft=4;spacingRight=4;overflow=hidden;rotatable=0;points=[[0,0.5],[1,0.5]];portConstraint=eastwest;whiteSpace=wrap;html=1;" vertex="1" parent="majqjS3A9KxO7dfuxN8L-136">
          <mxGeometry y="52" width="140" height="28" as="geometry" />
        </mxCell>
        <mxCell id="majqjS3A9KxO7dfuxN8L-139" value="1" style="text;html=1;align=center;verticalAlign=middle;resizable=0;points=[];autosize=1;strokeColor=none;fillColor=none;" vertex="1" parent="1">
          <mxGeometry x="2470" y="159.25" width="30" height="30" as="geometry" />
        </mxCell>
        <mxCell id="majqjS3A9KxO7dfuxN8L-194" style="edgeStyle=orthogonalEdgeStyle;rounded=0;orthogonalLoop=1;jettySize=auto;html=1;entryX=0.499;entryY=1.027;entryDx=0;entryDy=0;entryPerimeter=0;endArrow=none;endFill=0;" edge="1" parent="1" source="majqjS3A9KxO7dfuxN8L-141" target="majqjS3A9KxO7dfuxN8L-191">
          <mxGeometry relative="1" as="geometry">
            <mxPoint x="3140" y="-300" as="targetPoint" />
          </mxGeometry>
        </mxCell>
        <mxCell id="majqjS3A9KxO7dfuxN8L-141" value="&lt;font style=&quot;vertical-align: inherit;&quot;&gt;&lt;font style=&quot;vertical-align: inherit;&quot;&gt;Ticket&lt;/font&gt;&lt;/font&gt;" style="swimlane;fontStyle=0;childLayout=stackLayout;horizontal=1;startSize=26;fillColor=none;horizontalStack=0;resizeParent=1;resizeParentMax=0;resizeLast=0;collapsible=1;marginBottom=0;whiteSpace=wrap;html=1;" vertex="1" parent="1">
          <mxGeometry x="3070" y="-225" width="140" height="104" as="geometry">
            <mxRectangle x="240" y="414" width="140" height="30" as="alternateBounds" />
          </mxGeometry>
        </mxCell>
        <mxCell id="majqjS3A9KxO7dfuxN8L-142" value="IdTicket" style="text;strokeColor=none;fillColor=none;align=left;verticalAlign=top;spacingLeft=4;spacingRight=4;overflow=hidden;rotatable=0;points=[[0,0.5],[1,0.5]];portConstraint=eastwest;whiteSpace=wrap;html=1;" vertex="1" parent="majqjS3A9KxO7dfuxN8L-141">
          <mxGeometry y="26" width="140" height="26" as="geometry" />
        </mxCell>
        <mxCell id="majqjS3A9KxO7dfuxN8L-143" value="Tipologia" style="text;strokeColor=none;fillColor=none;align=left;verticalAlign=top;spacingLeft=4;spacingRight=4;overflow=hidden;rotatable=0;points=[[0,0.5],[1,0.5]];portConstraint=eastwest;whiteSpace=wrap;html=1;" vertex="1" parent="majqjS3A9KxO7dfuxN8L-141">
          <mxGeometry y="52" width="140" height="26" as="geometry" />
        </mxCell>
        <mxCell id="majqjS3A9KxO7dfuxN8L-144" value="Stato" style="text;strokeColor=none;fillColor=none;align=left;verticalAlign=top;spacingLeft=4;spacingRight=4;overflow=hidden;rotatable=0;points=[[0,0.5],[1,0.5]];portConstraint=eastwest;whiteSpace=wrap;html=1;" vertex="1" parent="majqjS3A9KxO7dfuxN8L-141">
          <mxGeometry y="78" width="140" height="26" as="geometry" />
        </mxCell>
        <mxCell id="majqjS3A9KxO7dfuxN8L-145" value="" style="shape=flexArrow;endArrow=classic;html=1;rounded=0;entryX=0.495;entryY=1.097;entryDx=0;entryDy=0;entryPerimeter=0;" edge="1" parent="1" target="majqjS3A9KxO7dfuxN8L-144">
          <mxGeometry width="50" height="50" relative="1" as="geometry">
            <mxPoint x="3139" y="17.25" as="sourcePoint" />
            <mxPoint x="3085" y="51.88000000000022" as="targetPoint" />
          </mxGeometry>
        </mxCell>
        <mxCell id="majqjS3A9KxO7dfuxN8L-146" style="edgeStyle=orthogonalEdgeStyle;rounded=0;orthogonalLoop=1;jettySize=auto;html=1;exitX=0.5;exitY=0;exitDx=0;exitDy=0;endArrow=none;endFill=0;" edge="1" parent="1" source="majqjS3A9KxO7dfuxN8L-147">
          <mxGeometry relative="1" as="geometry">
            <mxPoint x="3140" y="17.25" as="targetPoint" />
          </mxGeometry>
        </mxCell>
        <mxCell id="majqjS3A9KxO7dfuxN8L-153" style="edgeStyle=orthogonalEdgeStyle;rounded=0;orthogonalLoop=1;jettySize=auto;html=1;entryX=0.5;entryY=0;entryDx=0;entryDy=0;exitX=0.5;exitY=1;exitDx=0;exitDy=0;endArrow=none;endFill=0;" edge="1" parent="1" source="majqjS3A9KxO7dfuxN8L-147" target="majqjS3A9KxO7dfuxN8L-67">
          <mxGeometry relative="1" as="geometry" />
        </mxCell>
        <mxCell id="majqjS3A9KxO7dfuxN8L-147" value="&lt;font style=&quot;vertical-align: inherit;&quot;&gt;&lt;font style=&quot;vertical-align: inherit;&quot;&gt;Ticket_Consegna&lt;/font&gt;&lt;/font&gt;" style="swimlane;fontStyle=0;childLayout=stackLayout;horizontal=1;startSize=26;fillColor=none;horizontalStack=0;resizeParent=1;resizeParentMax=0;resizeLast=0;collapsible=1;marginBottom=0;whiteSpace=wrap;html=1;" vertex="1" parent="1">
          <mxGeometry x="2970" y="105.25" width="140" height="52" as="geometry">
            <mxRectangle x="240" y="414" width="140" height="30" as="alternateBounds" />
          </mxGeometry>
        </mxCell>
        <mxCell id="majqjS3A9KxO7dfuxN8L-148" value="IdTicket" style="text;strokeColor=none;fillColor=none;align=left;verticalAlign=top;spacingLeft=4;spacingRight=4;overflow=hidden;rotatable=0;points=[[0,0.5],[1,0.5]];portConstraint=eastwest;whiteSpace=wrap;html=1;" vertex="1" parent="majqjS3A9KxO7dfuxN8L-147">
          <mxGeometry y="26" width="140" height="26" as="geometry" />
        </mxCell>
        <mxCell id="majqjS3A9KxO7dfuxN8L-149" style="edgeStyle=orthogonalEdgeStyle;rounded=0;orthogonalLoop=1;jettySize=auto;html=1;exitX=0.5;exitY=0;exitDx=0;exitDy=0;endArrow=none;endFill=0;" edge="1" parent="1" source="majqjS3A9KxO7dfuxN8L-150">
          <mxGeometry relative="1" as="geometry">
            <mxPoint x="3140" y="17.25" as="targetPoint" />
          </mxGeometry>
        </mxCell>
        <mxCell id="majqjS3A9KxO7dfuxN8L-150" value="&lt;font style=&quot;vertical-align: inherit;&quot;&gt;&lt;font style=&quot;vertical-align: inherit;&quot;&gt;Ticket_Ritiro&lt;/font&gt;&lt;/font&gt;" style="swimlane;fontStyle=0;childLayout=stackLayout;horizontal=1;startSize=26;fillColor=none;horizontalStack=0;resizeParent=1;resizeParentMax=0;resizeLast=0;collapsible=1;marginBottom=0;whiteSpace=wrap;html=1;" vertex="1" parent="1">
          <mxGeometry x="3180" y="105.25" width="140" height="52" as="geometry">
            <mxRectangle x="240" y="414" width="140" height="30" as="alternateBounds" />
          </mxGeometry>
        </mxCell>
        <mxCell id="majqjS3A9KxO7dfuxN8L-151" value="IdTicket" style="text;strokeColor=none;fillColor=none;align=left;verticalAlign=top;spacingLeft=4;spacingRight=4;overflow=hidden;rotatable=0;points=[[0,0.5],[1,0.5]];portConstraint=eastwest;whiteSpace=wrap;html=1;" vertex="1" parent="majqjS3A9KxO7dfuxN8L-150">
          <mxGeometry y="26" width="140" height="26" as="geometry" />
        </mxCell>
        <mxCell id="majqjS3A9KxO7dfuxN8L-154" style="edgeStyle=orthogonalEdgeStyle;rounded=0;orthogonalLoop=1;jettySize=auto;html=1;entryX=0.5;entryY=0;entryDx=0;entryDy=0;endArrow=none;endFill=0;" edge="1" parent="1" source="majqjS3A9KxO7dfuxN8L-150" target="majqjS3A9KxO7dfuxN8L-86">
          <mxGeometry relative="1" as="geometry">
            <Array as="points">
              <mxPoint x="3250" y="269.25" />
              <mxPoint x="3250" y="269.25" />
            </Array>
          </mxGeometry>
        </mxCell>
        <mxCell id="majqjS3A9KxO7dfuxN8L-166" style="edgeStyle=orthogonalEdgeStyle;rounded=0;orthogonalLoop=1;jettySize=auto;html=1;entryX=-0.012;entryY=0.471;entryDx=0;entryDy=0;entryPerimeter=0;endArrow=none;endFill=0;" edge="1" parent="1" source="majqjS3A9KxO7dfuxN8L-105" target="majqjS3A9KxO7dfuxN8L-143">
          <mxGeometry relative="1" as="geometry" />
        </mxCell>
        <mxCell id="majqjS3A9KxO7dfuxN8L-167" style="edgeStyle=orthogonalEdgeStyle;rounded=0;orthogonalLoop=1;jettySize=auto;html=1;entryX=0.488;entryY=1.031;entryDx=0;entryDy=0;entryPerimeter=0;endArrow=none;endFill=0;" edge="1" parent="1" source="majqjS3A9KxO7dfuxN8L-79" target="majqjS3A9KxO7dfuxN8L-69">
          <mxGeometry relative="1" as="geometry">
            <mxPoint x="3040" y="450" as="targetPoint" />
          </mxGeometry>
        </mxCell>
        <mxCell id="majqjS3A9KxO7dfuxN8L-171" value="1" style="text;html=1;align=center;verticalAlign=middle;resizable=0;points=[];autosize=1;strokeColor=none;fillColor=none;" vertex="1" parent="1">
          <mxGeometry x="1320" y="209" width="30" height="30" as="geometry" />
        </mxCell>
        <mxCell id="majqjS3A9KxO7dfuxN8L-172" value="1..*" style="text;html=1;align=center;verticalAlign=middle;resizable=0;points=[];autosize=1;strokeColor=none;fillColor=none;" vertex="1" parent="1">
          <mxGeometry x="2465" y="-120" width="40" height="30" as="geometry" />
        </mxCell>
        <mxCell id="majqjS3A9KxO7dfuxN8L-173" value="1" style="text;html=1;align=center;verticalAlign=middle;resizable=0;points=[];autosize=1;strokeColor=none;fillColor=none;" vertex="1" parent="1">
          <mxGeometry x="2856" y="-188" width="30" height="30" as="geometry" />
        </mxCell>
        <mxCell id="VhrTgCtmdBGIwOgzSYlS-1" value="la tappa assume il significato di:&lt;div&gt;-PUNTO DI RITIRO in fase di ritiro&lt;/div&gt;&lt;div&gt;-PUNTO DI CONSEGNA in fase di consegna&lt;/div&gt;" style="text;html=1;align=center;verticalAlign=middle;resizable=0;points=[];autosize=1;strokeColor=none;fillColor=none;" vertex="1" parent="1">
          <mxGeometry x="2280" y="-320" width="260" height="60" as="geometry" />
        </mxCell>
        <mxCell id="majqjS3A9KxO7dfuxN8L-175" value="1" style="text;html=1;align=center;verticalAlign=middle;resizable=0;points=[];autosize=1;strokeColor=none;fillColor=none;" vertex="1" parent="1">
          <mxGeometry x="3040" y="-188" width="30" height="30" as="geometry" />
        </mxCell>
        <mxCell id="majqjS3A9KxO7dfuxN8L-176" value="1" style="text;html=1;align=center;verticalAlign=middle;resizable=0;points=[];autosize=1;strokeColor=none;fillColor=none;" vertex="1" parent="1">
          <mxGeometry x="3150" y="312" width="30" height="30" as="geometry" />
        </mxCell>
        <mxCell id="majqjS3A9KxO7dfuxN8L-177" value="1..*" style="text;html=1;align=center;verticalAlign=middle;resizable=0;points=[];autosize=1;strokeColor=none;fillColor=none;" vertex="1" parent="1">
          <mxGeometry x="3100" y="312" width="40" height="30" as="geometry" />
        </mxCell>
        <mxCell id="majqjS3A9KxO7dfuxN8L-178" value="1" style="text;html=1;align=center;verticalAlign=middle;resizable=0;points=[];autosize=1;strokeColor=none;fillColor=none;" vertex="1" parent="1">
          <mxGeometry x="3420" y="690" width="30" height="30" as="geometry" />
        </mxCell>
        <mxCell id="majqjS3A9KxO7dfuxN8L-179" value="1..*" style="text;html=1;align=center;verticalAlign=middle;resizable=0;points=[];autosize=1;strokeColor=none;fillColor=none;" vertex="1" parent="1">
          <mxGeometry x="3308" y="690" width="40" height="30" as="geometry" />
        </mxCell>
        <mxCell id="majqjS3A9KxO7dfuxN8L-180" value="1" style="text;html=1;align=center;verticalAlign=middle;resizable=0;points=[];autosize=1;strokeColor=none;fillColor=none;" vertex="1" parent="1">
          <mxGeometry x="3150" y="683.5" width="30" height="30" as="geometry" />
        </mxCell>
        <mxCell id="majqjS3A9KxO7dfuxN8L-181" value="1..*" style="text;html=1;align=center;verticalAlign=middle;resizable=0;points=[];autosize=1;strokeColor=none;fillColor=none;" vertex="1" parent="1">
          <mxGeometry x="3035" y="384" width="40" height="30" as="geometry" />
        </mxCell>
        <mxCell id="majqjS3A9KxO7dfuxN8L-182" value="Corriere" style="swimlane;fontStyle=0;childLayout=stackLayout;horizontal=1;startSize=26;fillColor=none;horizontalStack=0;resizeParent=1;resizeParentMax=0;resizeLast=0;collapsible=1;marginBottom=0;whiteSpace=wrap;html=1;" vertex="1" parent="1">
          <mxGeometry x="3390" y="-195" width="140" height="52" as="geometry" />
        </mxCell>
        <mxCell id="majqjS3A9KxO7dfuxN8L-183" value="IdCorriere" style="text;strokeColor=none;fillColor=none;align=left;verticalAlign=top;spacingLeft=4;spacingRight=4;overflow=hidden;rotatable=0;points=[[0,0.5],[1,0.5]];portConstraint=eastwest;whiteSpace=wrap;html=1;" vertex="1" parent="majqjS3A9KxO7dfuxN8L-182">
          <mxGeometry y="26" width="140" height="26" as="geometry" />
        </mxCell>
        <mxCell id="majqjS3A9KxO7dfuxN8L-185" value="1" style="text;html=1;align=center;verticalAlign=middle;resizable=0;points=[];autosize=1;strokeColor=none;fillColor=none;" vertex="1" parent="1">
          <mxGeometry x="3360" y="-195" width="30" height="30" as="geometry" />
        </mxCell>
        <mxCell id="majqjS3A9KxO7dfuxN8L-186" style="edgeStyle=orthogonalEdgeStyle;rounded=0;orthogonalLoop=1;jettySize=auto;html=1;entryX=0.994;entryY=0.152;entryDx=0;entryDy=0;entryPerimeter=0;endArrow=none;endFill=0;" edge="1" parent="1" source="majqjS3A9KxO7dfuxN8L-182" target="majqjS3A9KxO7dfuxN8L-143">
          <mxGeometry relative="1" as="geometry" />
        </mxCell>
        <mxCell id="majqjS3A9KxO7dfuxN8L-187" value="1..*" style="text;html=1;align=center;verticalAlign=middle;resizable=0;points=[];autosize=1;strokeColor=none;fillColor=none;" vertex="1" parent="1">
          <mxGeometry x="3210" y="-195" width="40" height="30" as="geometry" />
        </mxCell>
        <mxCell id="majqjS3A9KxO7dfuxN8L-188" style="edgeStyle=orthogonalEdgeStyle;rounded=0;orthogonalLoop=1;jettySize=auto;html=1;entryX=-0.001;entryY=0.362;entryDx=0;entryDy=0;entryPerimeter=0;endArrow=none;endFill=0;" edge="1" parent="1" source="majqjS3A9KxO7dfuxN8L-77" target="majqjS3A9KxO7dfuxN8L-75">
          <mxGeometry relative="1" as="geometry" />
        </mxCell>
        <mxCell id="majqjS3A9KxO7dfuxN8L-189" value="&lt;font style=&quot;vertical-align: inherit;&quot;&gt;&lt;font style=&quot;vertical-align: inherit;&quot;&gt;Mezzo&lt;/font&gt;&lt;/font&gt;" style="swimlane;fontStyle=0;childLayout=stackLayout;horizontal=1;startSize=26;fillColor=none;horizontalStack=0;resizeParent=1;resizeParentMax=0;resizeLast=0;collapsible=1;marginBottom=0;whiteSpace=wrap;html=1;" vertex="1" parent="1">
          <mxGeometry x="3070" y="-387" width="140" height="78" as="geometry">
            <mxRectangle x="240" y="414" width="140" height="30" as="alternateBounds" />
          </mxGeometry>
        </mxCell>
        <mxCell id="majqjS3A9KxO7dfuxN8L-190" value="IdMezzo" style="text;strokeColor=none;fillColor=none;align=left;verticalAlign=top;spacingLeft=4;spacingRight=4;overflow=hidden;rotatable=0;points=[[0,0.5],[1,0.5]];portConstraint=eastwest;whiteSpace=wrap;html=1;" vertex="1" parent="majqjS3A9KxO7dfuxN8L-189">
          <mxGeometry y="26" width="140" height="26" as="geometry" />
        </mxCell>
        <mxCell id="majqjS3A9KxO7dfuxN8L-191" value="Tipologia" style="text;strokeColor=none;fillColor=none;align=left;verticalAlign=top;spacingLeft=4;spacingRight=4;overflow=hidden;rotatable=0;points=[[0,0.5],[1,0.5]];portConstraint=eastwest;whiteSpace=wrap;html=1;" vertex="1" parent="majqjS3A9KxO7dfuxN8L-189">
          <mxGeometry y="52" width="140" height="26" as="geometry" />
        </mxCell>
        <mxCell id="majqjS3A9KxO7dfuxN8L-195" value="1" style="text;html=1;align=center;verticalAlign=middle;resizable=0;points=[];autosize=1;strokeColor=none;fillColor=none;" vertex="1" parent="1">
          <mxGeometry x="3130" y="-250" width="30" height="30" as="geometry" />
        </mxCell>
        <mxCell id="majqjS3A9KxO7dfuxN8L-196" value="1..*" style="text;html=1;align=center;verticalAlign=middle;resizable=0;points=[];autosize=1;strokeColor=none;fillColor=none;" vertex="1" parent="1">
          <mxGeometry x="3130" y="-309" width="40" height="30" as="geometry" />
        </mxCell>
        <mxCell id="majqjS3A9KxO7dfuxN8L-197" style="edgeStyle=orthogonalEdgeStyle;rounded=0;orthogonalLoop=1;jettySize=auto;html=1;entryX=0.499;entryY=1.027;entryDx=0;entryDy=0;entryPerimeter=0;endArrow=none;endFill=0;exitX=1;exitY=0.5;exitDx=0;exitDy=0;" edge="1" parent="1" source="nfyMrxGbnOqmfFPUxilh-95" target="majqjS3A9KxO7dfuxN8L-200">
          <mxGeometry relative="1" as="geometry">
            <mxPoint x="1150" y="104" as="targetPoint" />
            <mxPoint x="1150" y="179" as="sourcePoint" />
          </mxGeometry>
        </mxCell>
        <mxCell id="majqjS3A9KxO7dfuxN8L-198" value="&lt;font style=&quot;vertical-align: inherit;&quot;&gt;&lt;font style=&quot;vertical-align: inherit;&quot;&gt;Mezzo&lt;/font&gt;&lt;/font&gt;" style="swimlane;fontStyle=0;childLayout=stackLayout;horizontal=1;startSize=26;fillColor=none;horizontalStack=0;resizeParent=1;resizeParentMax=0;resizeLast=0;collapsible=1;marginBottom=0;whiteSpace=wrap;html=1;" vertex="1" parent="1">
          <mxGeometry x="1080" y="17" width="140" height="78" as="geometry">
            <mxRectangle x="240" y="414" width="140" height="30" as="alternateBounds" />
          </mxGeometry>
        </mxCell>
        <mxCell id="majqjS3A9KxO7dfuxN8L-199" value="IdMezzo" style="text;strokeColor=none;fillColor=none;align=left;verticalAlign=top;spacingLeft=4;spacingRight=4;overflow=hidden;rotatable=0;points=[[0,0.5],[1,0.5]];portConstraint=eastwest;whiteSpace=wrap;html=1;" vertex="1" parent="majqjS3A9KxO7dfuxN8L-198">
          <mxGeometry y="26" width="140" height="26" as="geometry" />
        </mxCell>
        <mxCell id="majqjS3A9KxO7dfuxN8L-200" value="Tipologia" style="text;strokeColor=none;fillColor=none;align=left;verticalAlign=top;spacingLeft=4;spacingRight=4;overflow=hidden;rotatable=0;points=[[0,0.5],[1,0.5]];portConstraint=eastwest;whiteSpace=wrap;html=1;" vertex="1" parent="majqjS3A9KxO7dfuxN8L-198">
          <mxGeometry y="52" width="140" height="26" as="geometry" />
        </mxCell>
        <mxCell id="majqjS3A9KxO7dfuxN8L-201" value="1" style="text;html=1;align=center;verticalAlign=middle;resizable=0;points=[];autosize=1;strokeColor=none;fillColor=none;" vertex="1" parent="1">
          <mxGeometry x="1080" y="196" width="30" height="30" as="geometry" />
        </mxCell>
        <mxCell id="majqjS3A9KxO7dfuxN8L-202" value="1..*" style="text;html=1;align=center;verticalAlign=middle;resizable=0;points=[];autosize=1;strokeColor=none;fillColor=none;" vertex="1" parent="1">
          <mxGeometry x="1110" y="95" width="40" height="30" as="geometry" />
        </mxCell>
      </root>
    </mxGraphModel>
  </diagram>
</mxfile>
